Coordinates
nRows=234
nColumns=2
inDegrees=yes
endheader
time	ankle_angle_r	
3.42641	 -5.346030	
3.45968	 -5.315212	
3.49294	 -5.301880	
3.52621	 -5.300757	
3.55948	 -5.300139	
3.59274	 -5.298685	
3.62601	 -5.298514	
3.65927	 -5.299899	
3.69254	 -5.302529	
3.72581	 -5.305008	
3.75907	 -5.307772	
3.79234	 -5.311760	
3.8256	 -5.312927	
3.85887	 -5.308430	
3.89214	 -5.301350	
3.9254	 -5.293390	
3.95867	 -5.284275	
3.99194	 -5.275746	
4.0252	 -5.269752	
4.05847	 -5.268382	
4.09173	 -5.271233	
4.125	 -5.271389	
4.15827	 -5.263025	
4.19153	 -5.250164	
4.2248	 -5.242527	
4.25806	 -5.242449	
4.29133	 -5.239041	
4.3246	 -5.223157	
4.35786	 -5.202665	
4.39113	 -5.191085	
4.4244	 -5.192842	
4.45766	 -5.208387	
4.49093	 -5.234220	
4.52419	 -5.256807	
4.55746	 -5.266908	
4.59073	 -5.272617	
4.62399	 -5.284287	
4.65726	 -5.298946	
4.69052	 -5.306451	
4.72379	 -5.301902	
4.75706	 -5.290647	
4.79032	 -5.281746	
4.82359	 -5.278188	
4.85685	 -5.277655	
4.89012	 -5.277701	
4.92339	 -5.278354	
4.95665	 -5.281512	
4.98992	 -5.285439	
5.02319	 -5.286424	
5.05645	 -5.285290	
5.08972	 -5.283157	
5.12298	 -5.279355	
5.15625	 -5.275563	
5.18952	 -5.272879	
5.22278	 -5.271360	
5.25605	 -5.272660	
5.28931	 -5.275517	
5.32258	 -5.276297	
5.35585	 -5.274577	
5.38911	 -5.271279	
5.42238	 -5.266987	
5.45565	 -5.262524	
5.48891	 -5.258263	
5.52218	 -5.255868	
5.55544	 -5.256358	
5.58871	 -5.255894	
5.62198	 -5.250535	
5.65524	 -5.242209	
5.68851	 -5.235545	
5.72177	 -5.232390	
5.75504	 -5.229905	
5.78831	 -5.225661	
5.82157	 -5.225532	
5.85484	 -5.233899	
5.8881	 -5.240322	
5.92137	 -5.236171	
5.95464	 -5.229813	
5.9879	 -5.229156	
6.02117	 -5.230174	
6.05444	 -5.228458	
6.0877	 -5.222689	
6.12097	 -5.209766	
6.15423	 -5.190712	
6.1875	 -5.173826	
6.22077	 -5.165973	
6.25403	 -5.169100	
6.2873	 -5.181495	
6.32056	 -5.195928	
6.35383	 -5.203850	
6.3871	 -5.201044	
6.42036	 -5.187332	
6.45363	 -5.170246	
6.4869	 -5.162705	
6.52016	 -5.167109	
6.55343	 -5.173012	
6.58669	 -5.172824	
6.61996	 -5.170227	
6.65323	 -5.173211	
6.68649	 -5.182979	
6.71976	 -5.194093	
6.75302	 -5.202600	
6.78629	 -5.209685	
6.81956	 -5.221092	
6.85282	 -5.238991	
6.88609	 -5.255771	
6.91935	 -5.265054	
6.95262	 -5.269017	
6.98589	 -5.269574	
7.01915	 -5.266714	
7.05242	 -5.263748	
7.08569	 -5.261575	
7.11895	 -5.258022	
7.15222	 -5.257610	
7.18548	 -5.264710	
7.21875	 -5.273255	
7.25202	 -5.276859	
7.28528	 -5.275304	
7.31855	 -5.270027	
7.35181	 -5.264713	
7.38508	 -5.263162	
7.41835	 -5.264855	
7.45161	 -5.266720	
7.48488	 -5.267019	
7.51815	 -5.267943	
7.55141	 -5.270739	
7.58468	 -5.271366	
7.61794	 -5.268423	
7.65121	 -5.266362	
7.68448	 -5.268007	
7.71774	 -5.273488	
7.75101	 -5.281934	
7.78427	 -5.288741	
7.81754	 -5.288528	
7.85081	 -5.280559	
7.88407	 -5.268471	
7.91734	 -5.257731	
7.9506	 -5.249651	
7.98387	 -5.238255	
8.01714	 -5.222019	
8.0504	 -5.211438	
8.08367	 -5.215293	
8.11694	 -5.229249	
8.1502	 -5.241118	
8.18347	 -5.243068	
8.21673	 -5.240186	
8.25	 -5.242340	
8.28327	 -5.250792	
8.31653	 -5.262448	
8.3498	 -5.275065	
8.38306	 -5.284339	
8.41633	 -5.290150	
8.4496	 -5.296395	
8.48286	 -5.301252	
8.51613	 -5.301532	
8.5494	 -5.298772	
8.58266	 -5.295927	
8.61593	 -5.296083	
8.64919	 -5.299974	
8.68246	 -5.304527	
8.71573	 -5.308414	
8.74899	 -5.311596	
8.78226	 -5.311478	
8.81552	 -5.307292	
8.84879	 -5.300808	
8.88206	 -5.293845	
8.91532	 -5.291437	
8.94859	 -5.296915	
8.98185	 -5.304882	
9.01512	 -5.309055	
9.04839	 -5.308846	
9.08165	 -5.306435	
9.11492	 -5.305345	
9.14819	 -5.307134	
9.18145	 -5.308815	
9.21472	 -5.309644	
9.24798	 -5.311627	
9.28125	 -5.311138	
9.31452	 -5.302719	
9.34778	 -5.287329	
9.38105	 -5.271627	
9.41431	 -5.264799	
9.44758	 -5.270630	
9.48085	 -5.281536	
9.51411	 -5.286513	
9.54738	 -5.278569	
9.58065	 -5.256274	
9.61391	 -5.227736	
9.64718	 -5.205636	
9.68044	 -5.194141	
9.71371	 -5.189001	
9.74698	 -5.187129	
9.78024	 -5.189474	
9.81351	 -5.197606	
9.84677	 -5.205454	
9.88004	 -5.198800	
9.91331	 -5.172543	
9.94657	 -5.137830	
9.97984	 -5.108453	
10.0131	 -5.091492	
10.0464	 -5.088492	
10.0796	 -5.098094	
10.1129	 -5.115148	
10.1462	 -5.130280	
10.1794	 -5.140875	
10.2127	 -5.155928	
10.246	 -5.177307	
10.2792	 -5.194647	
10.3125	 -5.202838	
10.3458	 -5.204224	
10.379	 -5.200960	
10.4123	 -5.192354	
10.4456	 -5.175858	
10.4788	 -5.156431	
10.5121	 -5.145205	
10.5454	 -5.142159	
10.5786	 -5.138488	
10.6119	 -5.133775	
10.6452	 -5.133146	
10.6784	 -5.138916	
10.7117	 -5.152211	
10.745	 -5.170535	
10.7782	 -5.186123	
10.8115	 -5.191413	
10.8448	 -5.185448	
10.878	 -5.175627	
10.9113	 -5.168020	
10.9446	 -5.161425	
10.9778	 -5.158462	
11.0111	 -5.165216	
11.0444	 -5.177729	
11.0776	 -5.188117	
11.1109	 -5.193132	
11.1442	 -5.188301	
11.1774	 -5.172762	
